<?xml version="1.0" encoding="utf-8"?><!-- Uploaded to: SVG Repo, www.svgrepo.com, Generator: SVG Repo Mixer Tools -->
<svg width="800px" height="800px" viewBox="0 0 24 24" fill="none" xmlns="http://www.w3.org/2000/svg">
<path d="M14 15C13.3281 17.2188 12.2091 19 10 19C7.79086 19 6 17.2091 6 15H14ZM14 15L16.5442 7.36754C16.8164 6.55086 17.5807 6 18.4415 6H18.7639C19.5215 6 20.214 6.428 20.5528 7.10557L21 8M7 12L6.41421 11.4142C5.63316 10.6332 5.63316 9.36684 6.41421 8.58579L6.84062 8.15938C7.51475 7.48525 7.61934 6.42901 7.09051 5.63576L6 4M11 12L10.4142 11.4142C9.63316 10.6332 9.63316 9.36684 10.4142 8.58579L10.8406 8.15938C11.5148 7.48525 11.6193 6.42901 11.0905 5.63576L10 4" stroke="#000000" stroke-width="2" stroke-linecap="round" stroke-linejoin="round"/>
</svg>